<svg id="visual" viewBox="0 0 900 200" width="900" height="200" xmlns="http://www.w3.org/2000/svg" xmlns:xlink="http://www.w3.org/1999/xlink" version="1.1"><path d="M0 144L21.5 150.3C43 156.7 86 169.3 128.8 175C171.7 180.7 214.3 179.3 257.2 180C300 180.7 343 183.3 385.8 176.8C428.7 170.3 471.3 154.7 514.2 144.5C557 134.3 600 129.7 642.8 136.8C685.7 144 728.3 163 771.2 172.8C814 182.7 857 183.3 878.5 183.7L900 184L900 0L878.5 0C857 0 814 0 771.2 0C728.3 0 685.7 0 642.8 0C600 0 557 0 514.2 0C471.3 0 428.7 0 385.8 0C343 0 300 0 257.2 0C214.3 0 171.7 0 128.8 0C86 0 43 0 21.5 0L0 0Z" fill="#030130"></path><path d="M0 126L21.5 125.8C43 125.7 86 125.3 128.8 127.3C171.7 129.3 214.3 133.7 257.2 130.7C300 127.7 343 117.3 385.8 119.5C428.7 121.7 471.3 136.3 514.2 135.5C557 134.7 600 118.3 642.8 117.8C685.7 117.3 728.3 132.7 771.2 140.8C814 149 857 150 878.5 150.5L900 151L900 0L878.5 0C857 0 814 0 771.2 0C728.3 0 685.7 0 642.8 0C600 0 557 0 514.2 0C471.3 0 428.7 0 385.8 0C343 0 300 0 257.2 0C214.3 0 171.7 0 128.8 0C86 0 43 0 21.5 0L0 0Z" fill="#30124a"></path><path d="M0 93L21.5 95C43 97 86 101 128.8 100.3C171.7 99.7 214.3 94.3 257.2 90.8C300 87.3 343 85.7 385.8 82.8C428.7 80 471.3 76 514.2 79C557 82 600 92 642.8 93.3C685.7 94.7 728.3 87.3 771.2 86.3C814 85.3 857 90.7 878.5 93.3L900 96L900 0L878.5 0C857 0 814 0 771.2 0C728.3 0 685.7 0 642.8 0C600 0 557 0 514.2 0C471.3 0 428.7 0 385.8 0C343 0 300 0 257.2 0C214.3 0 171.7 0 128.8 0C86 0 43 0 21.5 0L0 0Z" fill="#61175d"></path><path d="M0 57L21.5 59.5C43 62 86 67 128.8 67.7C171.7 68.3 214.3 64.7 257.2 60.5C300 56.3 343 51.7 385.8 49.5C428.7 47.3 471.3 47.7 514.2 48.5C557 49.3 600 50.7 642.8 56.2C685.7 61.7 728.3 71.3 771.2 75.7C814 80 857 79 878.5 78.5L900 78L900 0L878.5 0C857 0 814 0 771.2 0C728.3 0 685.7 0 642.8 0C600 0 557 0 514.2 0C471.3 0 428.7 0 385.8 0C343 0 300 0 257.2 0C214.3 0 171.7 0 128.8 0C86 0 43 0 21.5 0L0 0Z" fill="#941a67"></path><path d="M0 35L21.5 37C43 39 86 43 128.8 44.7C171.7 46.3 214.3 45.7 257.2 43.7C300 41.7 343 38.3 385.8 37.7C428.7 37 471.3 39 514.2 40.8C557 42.7 600 44.3 642.8 42C685.7 39.7 728.3 33.3 771.2 33.5C814 33.7 857 40.3 878.5 43.7L900 47L900 0L878.5 0C857 0 814 0 771.2 0C728.3 0 685.7 0 642.8 0C600 0 557 0 514.2 0C471.3 0 428.7 0 385.8 0C343 0 300 0 257.2 0C214.3 0 171.7 0 128.8 0C86 0 43 0 21.5 0L0 0Z" fill="#c62368"></path></svg>