<svg id="visual" viewBox="0 0 900 600" width="900" height="600" xmlns="http://www.w3.org/2000/svg" xmlns:xlink="http://www.w3.org/1999/xlink" version="1.1"><path d="M0 362L21.5 377.5C43 393 86 424 128.8 438C171.7 452 214.3 449 257.2 451C300 453 343 460 385.8 444C428.7 428 471.3 389 514.2 363.3C557 337.7 600 325.3 642.8 343.2C685.7 361 728.3 409 771.2 433.7C814 458.3 857 459.7 878.5 460.3L900 461L900 0L878.5 0C857 0 814 0 771.2 0C728.3 0 685.7 0 642.8 0C600 0 557 0 514.2 0C471.3 0 428.7 0 385.8 0C343 0 300 0 257.2 0C214.3 0 171.7 0 128.8 0C86 0 43 0 21.5 0L0 0Z" fill="#030130"></path><path d="M0 317L21.5 316.7C43 316.3 86 315.7 128.8 320.7C171.7 325.7 214.3 336.3 257.2 328.5C300 320.7 343 294.3 385.8 299.8C428.7 305.3 471.3 342.7 514.2 340.8C557 339 600 298 642.8 296.5C685.7 295 728.3 333 771.2 353.2C814 373.3 857 375.7 878.5 376.8L900 378L900 0L878.5 0C857 0 814 0 771.2 0C728.3 0 685.7 0 642.8 0C600 0 557 0 514.2 0C471.3 0 428.7 0 385.8 0C343 0 300 0 257.2 0C214.3 0 171.7 0 128.8 0C86 0 43 0 21.5 0L0 0Z" fill="#30124a"></path><path d="M0 233L21.5 238.2C43 243.3 86 253.7 128.8 252.3C171.7 251 214.3 238 257.2 229.2C300 220.3 343 215.7 385.8 208.3C428.7 201 471.3 191 514.2 198.5C557 206 600 231 642.8 234.3C685.7 237.7 728.3 219.3 771.2 217.2C814 215 857 229 878.5 236L900 243L900 0L878.5 0C857 0 814 0 771.2 0C728.3 0 685.7 0 642.8 0C600 0 557 0 514.2 0C471.3 0 428.7 0 385.8 0C343 0 300 0 257.2 0C214.3 0 171.7 0 128.8 0C86 0 43 0 21.5 0L0 0Z" fill="#61175d"></path><path d="M0 144L21.5 150C43 156 86 168 128.8 169.5C171.7 171 214.3 162 257.2 152C300 142 343 131 385.8 125.8C428.7 120.7 471.3 121.3 514.2 123.3C557 125.3 600 128.7 642.8 142.3C685.7 156 728.3 180 771.2 190.7C814 201.3 857 198.7 878.5 197.3L900 196L900 0L878.5 0C857 0 814 0 771.2 0C728.3 0 685.7 0 642.8 0C600 0 557 0 514.2 0C471.3 0 428.7 0 385.8 0C343 0 300 0 257.2 0C214.3 0 171.7 0 128.8 0C86 0 43 0 21.5 0L0 0Z" fill="#941a67"></path><path d="M0 90L21.5 94.8C43 99.7 86 109.3 128.8 113.5C171.7 117.7 214.3 116.3 257.2 111.2C300 106 343 97 385.8 95C428.7 93 471.3 98 514.2 102.5C557 107 600 111 642.8 105.5C685.7 100 728.3 85 771.2 85.7C814 86.3 857 102.7 878.5 110.8L900 119L900 0L878.5 0C857 0 814 0 771.2 0C728.3 0 685.7 0 642.8 0C600 0 557 0 514.2 0C471.3 0 428.7 0 385.8 0C343 0 300 0 257.2 0C214.3 0 171.7 0 128.8 0C86 0 43 0 21.5 0L0 0Z" fill="#c62368"></path></svg>