<svg id="visual" viewBox="0 0 900 600" width="900" height="600" xmlns="http://www.w3.org/2000/svg" xmlns:xlink="http://www.w3.org/1999/xlink" version="1.1"><path d="M0 236L21.5 220.5C43 205 86 174 128.8 160C171.7 146 214.3 149 257.2 147C300 145 343 138 385.8 154C428.7 170 471.3 209 514.2 234.7C557 260.3 600 272.7 642.8 254.8C685.7 237 728.3 189 771.2 164.3C814 139.7 857 138.3 878.5 137.7L900 137L900 601L878.5 601C857 601 814 601 771.2 601C728.3 601 685.7 601 642.8 601C600 601 557 601 514.2 601C471.3 601 428.7 601 385.8 601C343 601 300 601 257.2 601C214.3 601 171.7 601 128.8 601C86 601 43 601 21.5 601L0 601Z" fill="#030130"></path><path d="M0 281L21.5 281.3C43 281.7 86 282.3 128.8 277.3C171.7 272.3 214.3 261.7 257.2 269.5C300 277.3 343 303.7 385.8 298.2C428.7 292.7 471.3 255.3 514.2 257.2C557 259 600 300 642.8 301.5C685.7 303 728.3 265 771.2 244.8C814 224.7 857 222.3 878.5 221.2L900 220L900 601L878.5 601C857 601 814 601 771.2 601C728.3 601 685.7 601 642.8 601C600 601 557 601 514.2 601C471.3 601 428.7 601 385.8 601C343 601 300 601 257.2 601C214.3 601 171.7 601 128.8 601C86 601 43 601 21.5 601L0 601Z" fill="#30124a"></path><path d="M0 365L21.5 359.8C43 354.7 86 344.3 128.8 345.7C171.7 347 214.3 360 257.2 368.8C300 377.7 343 382.3 385.8 389.7C428.7 397 471.3 407 514.2 399.5C557 392 600 367 642.8 363.7C685.7 360.3 728.3 378.7 771.2 380.8C814 383 857 369 878.5 362L900 355L900 601L878.5 601C857 601 814 601 771.2 601C728.3 601 685.7 601 642.8 601C600 601 557 601 514.2 601C471.3 601 428.7 601 385.8 601C343 601 300 601 257.2 601C214.3 601 171.7 601 128.8 601C86 601 43 601 21.5 601L0 601Z" fill="#61175d"></path><path d="M0 454L21.5 448C43 442 86 430 128.8 428.5C171.7 427 214.3 436 257.2 446C300 456 343 467 385.8 472.2C428.7 477.3 471.3 476.7 514.2 474.7C557 472.7 600 469.3 642.8 455.7C685.7 442 728.3 418 771.2 407.3C814 396.7 857 399.3 878.5 400.7L900 402L900 601L878.5 601C857 601 814 601 771.2 601C728.3 601 685.7 601 642.8 601C600 601 557 601 514.2 601C471.3 601 428.7 601 385.8 601C343 601 300 601 257.2 601C214.3 601 171.7 601 128.8 601C86 601 43 601 21.5 601L0 601Z" fill="#941a67"></path><path d="M0 508L21.5 503.2C43 498.3 86 488.7 128.8 484.5C171.7 480.3 214.3 481.7 257.2 486.8C300 492 343 501 385.8 503C428.7 505 471.3 500 514.2 495.5C557 491 600 487 642.8 492.5C685.7 498 728.3 513 771.2 512.3C814 511.7 857 495.3 878.5 487.2L900 479L900 601L878.5 601C857 601 814 601 771.2 601C728.3 601 685.7 601 642.8 601C600 601 557 601 514.2 601C471.3 601 428.7 601 385.8 601C343 601 300 601 257.2 601C214.3 601 171.7 601 128.8 601C86 601 43 601 21.5 601L0 601Z" fill="#c62368"></path></svg>